<svg xmlns="http://www.w3.org/2000/svg" width="53" height="53" fill="none"><path fill="#E4A30B" d="M24.957 2a2 2 0 1 1 4 0 2 2 0 0 1-4 0ZM25.765 14.042a2 2 0 1 1 4 0 2 2 0 0 1-4 0ZM25.765 26.084a2 2 0 1 1 4 0 2 2 0 0 1-4 0ZM25.765 38.126a2 2 0 1 1 4 0 2 2 0 0 1-4 0ZM12.958 2a2 2 0 1 1 4 0 2 2 0 0 1-4 0ZM13.765 14.042a2 2 0 1 1 4 0 2 2 0 0 1-4 0ZM13.765 26.084a2 2 0 1 1 4 0 2 2 0 0 1-4 0ZM13.765 38.126a2 2 0 1 1 4 0 2 2 0 0 1-4 0ZM13.765 50.168a2 2 0 1 1 4 0 2 2 0 0 1-4 0ZM48.957 2a2 2 0 1 1 4 0 2 2 0 0 1-4 0ZM48.957 14.042a2 2 0 1 1 4 0 2 2 0 0 1-4 0ZM.958 2a2 2 0 1 1 4 0 2 2 0 0 1-4 0ZM1.765 14.042a2 2 0 1 1 4 0 2 2 0 0 1-4 0ZM1.765 26.084a2 2 0 1 1 4 0 2 2 0 0 1-4 0ZM1.765 38.126a2 2 0 1 1 4 0 2 2 0 0 1-4 0ZM1.765 50.168a2 2 0 1 1 4 0 2 2 0 0 1-4 0ZM36.957 2a2 2 0 1 1 4 0 2 2 0 0 1-4 0ZM37.765 14.042a2 2 0 1 1 4 0 2 2 0 0 1-4 0ZM37.765 26.084a2 2 0 1 1 4 0 2 2 0 0 1-4 0ZM37.765 38.126a2 2 0 1 1 4 0 2 2 0 0 1-4 0Z"/></svg>