<svg xmlns="http://www.w3.org/2000/svg" width="52" height="53" fill="none"><path fill="gray" fill-opacity=".3" d="M24 50.168a2 2 0 1 0 4 0 2 2 0 0 0-4 0ZM24.807 38.126a2 2 0 1 0 4 0 2 2 0 0 0-4 0ZM24.807 26.084a2 2 0 1 0 4 0 2 2 0 0 0-4 0ZM24.807 14.042a2 2 0 1 0 4 0 2 2 0 0 0-4 0ZM12 50.168a2 2 0 1 0 4 0 2 2 0 0 0-4 0ZM12.807 38.126a2 2 0 1 0 4 0 2 2 0 0 0-4 0ZM12.807 26.084a2 2 0 1 0 4 0 2 2 0 0 0-4 0ZM12.807 14.042a2 2 0 1 0 4 0 2 2 0 0 0-4 0ZM12.807 2a2 2 0 1 0 4 0 2 2 0 0 0-4 0ZM48 50.168a2 2 0 1 0 4 0 2 2 0 0 0-4 0ZM48 38.126a2 2 0 1 0 4 0 2 2 0 0 0-4 0ZM0 50.168a2 2 0 1 0 4 0 2 2 0 0 0-4 0ZM.807 38.126a2 2 0 1 0 4 0 2 2 0 0 0-4 0ZM.807 26.084a2 2 0 1 0 4 0 2 2 0 0 0-4 0ZM.807 14.042a2 2 0 1 0 4 0 2 2 0 0 0-4 0ZM.807 2a2 2 0 1 0 4 0 2 2 0 0 0-4 0ZM36 50.168a2 2 0 1 0 4 0 2 2 0 0 0-4 0ZM36.807 38.126a2 2 0 1 0 4 0 2 2 0 0 0-4 0ZM36.807 26.084a2 2 0 1 0 4 0 2 2 0 0 0-4 0ZM36.807 14.042a2 2 0 1 0 4 0 2 2 0 0 0-4 0Z"/></svg>